<?xml version="1.0" encoding="UTF-8"?>
<svg id="Layer_2" data-name="Layer 2" xmlns="http://www.w3.org/2000/svg" viewBox="0 0 90 90">
  <defs>
    <style>
      .cls-1 {
        fill: #fff;
      }

      .cls-1, .cls-2, .cls-3, .cls-4, .cls-5, .cls-6, .cls-7, .cls-8 {
        fill-rule: evenodd;
        stroke-width: 0px;
      }

      .cls-2 {
        fill: #9bd2ff;
      }

      .cls-3 {
        fill: #0067bc;
      }

      .cls-4 {
        fill: #ff6d00;
      }

      .cls-5 {
        fill: #3798ea;
      }

      .cls-6 {
        fill: #202848;
      }

      .cls-7 {
        fill: #ffce00;
      }

      .cls-8 {
        fill: #f5f0df;
      }
    </style>
  </defs>
  <g id="Layer_1-2" data-name="Layer 1">
    <path class="cls-8" d="M45,0c11.94,0,23.38,4.74,31.82,13.18,8.44,8.44,13.18,19.89,13.18,31.82h0c0,11.93-4.74,23.38-13.18,31.82-8.44,8.44-19.88,13.18-31.82,13.18h0c-11.93,0-23.38-4.74-31.82-13.18C4.74,68.38,0,56.93,0,45h0c0-11.93,4.74-23.38,13.18-31.82C21.62,4.74,33.07,0,45,0h0Z"/>
    <path class="cls-6" d="M23.96,84.78c-3.94-2.08-7.58-4.75-10.78-7.96-1.92-1.92-3.64-3.99-5.17-6.19.04-.05.08-.1.12-.15,2.37-2.96,5.24-5.09,8.28-6.57.35-.17.64-.44.83-.78.08-.15.21-.27.37-.34,2.1-.93,4.32-1.44,6.59-1.64.42-.04.87.01,1.33.14.81-.1,1.62-.16,2.41-.19-.2-.45-.61-.92-1.37-1.6-7.2-6.47-9.75-12.73-10.05-18.92l-.06-.05c-.72-.53-1.27-1.38-1.64-2.34-.51-1.31-.71-2.83-.71-3.85,0-9.47,5.14-17.08,12.79-21.36.19-1.04,1.12-2.1,2.49-2.65,1.35-.55,2.75-.46,3.61.14,2.13-.57,4.37-.88,6.68-.88,5.9,0,11.34,2,15.67,5.36,3.78-1.19,7.49-1.77,10.74-1.35,2.71.35,4.72,1.18,6.09,2.31h0c2.11,1.74,2.8,4.17,2.22,6.82-.77,3.55-3.92,7.57-9.05,10.65.47,2.74.53,5.4.24,7.93.96-.1,1.97-.22,3.07-.36,2.48-.31,4.62,1.9,4.59,4.26-.03,2.31-2.12,4.24-4.34,4.45-.41.04-1.12.11-2.2.16.51.63.82,1.45.82,2.42,0,2.45-1.86,4.08-4.23,4.16-1.45.05-3.18.04-4.93.01-1.9,1.91-4.11,3.52-6.55,4.74.74.06,1.54.18,2.24.32.7.14,1.54.39,2.42.78,7.96,2.08,14.59,8.31,17.86,16.85-.43.37-.87.74-1.32,1.09-1.98,1.58-4.09,2.98-6.29,4.19-.51.28-1.03.56-1.55.82-6.21,3.11-13.11,4.78-20.19,4.78s-14.61-1.82-21.04-5.22h0Z"/>
    <path class="cls-2" d="M22.42,83.93c.37-4.33.31-6.93.31-6.93,0-.23.09-.46.26-.61.17-.16.4-.23.63-.21,0,0,.95.1,2.54.25-.22-4.13-.99-7.25-2.19-9.35-1-1.76-2.32-2.76-3.86-2.95-3.94,1.32-7.76,3.65-10.74,7.36-.13.16-.26.33-.39.5,1.27,1.7,2.67,3.31,4.18,4.82,2.78,2.78,5.9,5.16,9.24,7.11h0Z"/>
    <path class="cls-7" d="M18.12,39.82c.14,6.05,2.49,12.15,9.53,18.48,1.09.98,1.59,1.68,1.84,2.33.25.66.25,1.28.25,2.16,0,1.22.79,2.52,2.29,3.69,2.52,1.96,6.95,3.45,13.33,3.45,2.84,0,4.99-.72,6.28-1.82.75-.64,1.19-1.4,1.24-2.2.08-1.37-.93-2.75-3.06-3.83-.62.25-1.26.48-1.91.68-.42.13-.88-.11-1.01-.53-.13-.42.11-.88.53-1.01,3.24-1,6.17-2.66,8.64-4.84-1.73-.05-3.33-.12-4.51-.2-3.88-.23-7.28-3.25-7.2-7.82.08-4.35,3.69-7.3,7.56-7.03,5.64.39,8.82.4,12.02.15.32-2.46.28-5.06-.17-7.75l-.15-.35c-2.49-5.66-7.49-7.33-12.9-7.22-1.64,1.33-3.06,2.52-4.1,3.34-5.24,4.15-11.93,2.84-14.75,1.53-5.15,1.95-10.11,5.2-13.75,8.81h0Z"/>
    <path class="cls-2" d="M54.48,65.33c.14,1.25-.31,2.48-1.29,3.53-1.44,1.53-4.13,2.68-7.83,2.68-6.16,0-10.61-1.35-13.42-3.15.91,2.34,1.55,5.26,1.79,8.63,3.69.23,7.9.39,11.74.33,4.54-.08,8.52-.32,11.79-.67-.18-4.17-.75-7.49-1.93-9.9-.27-.55-.55-1.02-.85-1.44h0Z"/>
    <path class="cls-2" d="M53.49,15.59c-3.9-2.76-8.67-4.38-13.81-4.38-3.17,0-6.2.62-8.98,1.74-8.77,3.55-14.98,11.35-14.98,21.39,0,.86.17,2.15.6,3.26.16.41.36.81.61,1.13,3.83-3.82,9.09-7.26,14.53-9.29,3.58-3.75,11.09-9.19,19-12.64,1.01-.44,2.02-.85,3.03-1.22h0Z"/>
    <path class="cls-2" d="M65.4,15.15c-4.29-.41-9.37.97-14.3,3.13-7.21,3.15-14.1,7.99-17.79,11.59,2.8,1.03,8.08,1.71,12.32-1.64,1.08-.86,2.57-2.11,4.29-3.51,1.09-.88,2.27-1.81,3.5-2.75,3.79-2.85,8.09-5.67,11.81-6.77.05-.02.11-.03.17-.05h0Z"/>
    <path class="cls-3" d="M71.16,17.17c-1.41-1.11-3.34-1.06-5.47-.42-3.56,1.06-7.67,3.78-11.3,6.51-.58.44-1.15.88-1.7,1.31,5,.31,9.46,2.3,12.02,7.33,4.56-2.79,7.43-6.32,8.12-9.51.44-2.03-.06-3.9-1.66-5.23h0Z"/>
    <path class="cls-2" d="M73.03,80.21c-1.98,1.58-4.09,2.98-6.29,4.19-.23-3.1-.61-6.01-1.18-8.4-.05-.21-.19-.4-.38-.51-.19-.11-.42-.14-.63-.08-.21.06-.43.12-.66.18-.37-3.08-1.28-6.92-3.31-9.93-.04-.06-.08-.11-.12-.17,5.63,2.84,10.16,8.07,12.57,14.72h0Z"/>
    <path class="cls-5" d="M65.19,85.22c-6.21,3.11-13.11,4.78-20.19,4.78s-14.61-1.82-21.04-5.22c.31-3.27.37-5.68.39-6.91.47.05,1.1.11,1.88.18.01.83,0,1.7-.02,2.61-.04,1.3.52,2.35,1.23,3.14.99,1.1,2.26,1.65,2.26,1.65.22.1.46.09.68-.01,0,0,1.13-.55,2.08-1.59.67-.73,1.25-1.7,1.36-2.87,0-.02,0-.04,0-.06.02-.78.01-1.55-.01-2.29,3.68.22,7.86.39,11.68.32,4.53-.08,8.52-.32,11.82-.67.01.52.01,1.05.01,1.59,0,1.05.55,1.9,1.24,2.53.91.83,2.06,1.25,2.06,1.25.2.07.43.06.62-.03,0,0,2.89-1.41,2.89-4.29,0-.58-.02-1.3-.08-2.12.04-.01.08-.02.13-.03.49,2.35.82,5.12,1.01,8.04h0Z"/>
    <path class="cls-4" d="M63.34,49.93c-2.73.03-6.52-.05-11.65-.38-.44-.03-.78-.41-.75-.86.03-.44.41-.78.86-.75,10.84.7,15.63.25,16.98.12,1.45-.14,2.86-1.35,2.88-2.86.02-1.45-1.26-2.83-2.78-2.64-5.61.7-8.64.95-17.06.37-2.99-.21-5.78,2.09-5.84,5.46-.06,3.61,2.62,6,5.69,6.18,2.82.17,8.08.35,11.6.24,1.47-.05,2.68-1.02,2.67-2.54,0-1.49-1.25-2.32-2.59-2.32h0Z"/>
    <path class="cls-5" d="M54.94,63.34c.65.69,1.27,1.58,1.84,2.72,1.55,3.17,2.16,7.81,2.16,13.81,0,.56.34,1,.71,1.34.41.38.89.64,1.2.79.55-.34,1.67-1.21,1.67-2.66,0-2.71-.46-8.6-3.27-12.77-1.19-1.75-2.9-2.77-4.3-3.22h0Z"/>
    <path class="cls-6" d="M60.78,78.73c.48,0,.87.44.87.98s-.39.98-.87.98-.87-.44-.87-.98.39-.98.87-.98h0Z"/>
    <path class="cls-5" d="M22.18,63.05c1.23.6,2.31,1.67,3.2,3.23,1.68,2.95,2.63,7.75,2.44,14.43-.03.84.36,1.5.82,2.01.47.52,1.02.88,1.37,1.08.32-.2.82-.55,1.27-1.04.45-.49.86-1.12.94-1.9.13-6.56-1.18-11.74-3.24-14.77-.79-1.16-1.83-2.21-2.89-2.82-.6-.35-1.2-.57-1.74-.52-.73.06-1.45.16-2.17.3h0Z"/>
    <path class="cls-6" d="M30.07,80.05c.61,0,1.1.49,1.1,1.1s-.49,1.1-1.1,1.1-1.1-.49-1.1-1.1.49-1.1,1.1-1.1h0Z"/>
    <path class="cls-6" d="M35.89,82.76c-.36-.03-.63-.34-.6-.7.03-.36.34-.63.7-.6,0,0,11.15.86,19.47-.64.35-.06.69.17.76.53.06.35-.17.69-.52.76-8.46,1.53-19.8.65-19.8.65h0Z"/>
    <path class="cls-6" d="M17.71,33.77c.62,0,1.12.55,1.12,1.23s-.5,1.23-1.12,1.23-1.12-.55-1.12-1.23.5-1.23,1.12-1.23h0Z"/>
    <path class="cls-6" d="M29.18,26.49c.1.35-.11.71-.45.8-.35.1-.71-.11-.8-.45,0,0-1.34-4.82-.39-9.76.07-.35.41-.59.76-.52.35.07.59.41.52.76-.89,4.64.37,9.17.37,9.17h0Z"/>
    <path class="cls-6" d="M44.75,42.83c-2.14.25-3.19-1.97-3.53-4.83-.34-2.85.21-5.27,2.31-5.52,2.1-.25,3.19,1.97,3.53,4.83.34,2.85-.17,5.26-2.31,5.52h0Z"/>
    <path class="cls-6" d="M58.36,40.67c-1.65,0-2.24-1.78-2.24-3.97s.63-3.98,2.24-3.98,2.24,1.78,2.24,3.98-.6,3.97-2.24,3.97h0Z"/>
    <path class="cls-1" d="M57.6,33.62c.42,0,.76.34.76.76s-.34.76-.76.76-.76-.34-.76-.76.34-.76.76-.76h0Z"/>
    <path class="cls-1" d="M42.68,33.77c.54-.06,1.04.33,1.1.87.06.54-.32,1.04-.87,1.1-.55.06-1.04-.33-1.1-.87-.06-.55.32-1.04.87-1.1h0Z"/>
  </g>
</svg>