<?xml version="1.0" encoding="UTF-8"?>
<svg id="Layer_2" data-name="Layer 2" xmlns="http://www.w3.org/2000/svg" viewBox="0 0 265.72 90">
  <defs>
    <style>
      .cls-1 {
        fill: #fff;
      }

      .cls-1, .cls-2, .cls-3, .cls-4, .cls-5, .cls-6, .cls-7, .cls-8, .cls-9 {
        stroke-width: 0px;
      }

      .cls-1, .cls-2, .cls-3, .cls-4, .cls-6, .cls-7, .cls-8, .cls-9 {
        fill-rule: evenodd;
      }

      .cls-2 {
        fill: #9bd2ff;
      }

      .cls-3 {
        fill: #0067bc;
      }

      .cls-4 {
        fill: #ff6d00;
      }

      .cls-5 {
        fill: #6b7083;
      }

      .cls-6 {
        fill: #3798ea;
      }

      .cls-7 {
        fill: #202848;
      }

      .cls-8 {
        fill: #ffce00;
      }

      .cls-9 {
        fill: #f5f0df;
      }
    </style>
  </defs>
  <g id="Layer_1-2" data-name="Layer 1">
    <g>
      <path class="cls-4" d="M205.47,31.23c4.54-6.74,11.45-11.62,18.72-11.62,12.61,0,24.11,14.68,24.11,28.25,0,12.36-7.68,22.52-24.11,22.52-14.9,0-22.61-8.36-23.91-19.14,3.83-3.4,6.24-8.35,6.24-13.87,0-2.15-.37-4.22-1.04-6.14h0ZM224.19,60.12c7.49,0,10.99-6.05,10.99-13.41,0-8.09-5.25-16.83-10.99-16.83s-10.99,8.74-10.99,16.83c0,7.36,3.5,13.41,10.99,13.41h0Z"/>
      <path class="cls-4" d="M221.66,32.73c.67-.34,1.5-.08,1.85.6.34.67.08,1.5-.6,1.85,0,0-3.73,2.06-4.91,9.53-.12.75-.82,1.26-1.57,1.14-.75-.12-1.26-.82-1.14-1.57,1.45-9.19,6.38-11.55,6.38-11.55h0Z"/>
      <path class="cls-4" d="M152.02,19.61c1.94,0,3.8.77,5.17,2.14,1.37,1.37,2.14,3.23,2.14,5.17v36.14c0,1.94-.77,3.8-2.14,5.17-1.37,1.37-3.23,2.14-5.17,2.14h0c-1.94,0-3.8-.77-5.17-2.14-1.37-1.37-2.14-3.23-2.14-5.17V26.93c0-1.94.77-3.8,2.14-5.17s3.23-2.14,5.17-2.14h0Z"/>
      <path class="cls-4" d="M105.75,60.92l-10.31-31.73c-.6-1.85-.44-3.85.44-5.58.88-1.73,2.41-3.04,4.26-3.64h0c1.85-.6,3.85-.44,5.58.44,1.73.88,3.04,2.41,3.64,4.26l8.9,27.4c.38,1.18,1.22,2.16,2.32,2.72,1.1.56,2.39.66,3.56.28h0c2.45-.8,3.42-3.23,3-5.88-.44-2.75-2.41-12.36-2.41-20.25,0-6.04,3.8-9.31,8.49-9.31s8.49,3.28,8.49,9.31c0,2.09-.96,4.53-1.81,7.17-2.86,8.85-4.31,13.26-8.07,24.83-1.84,5.65-7.1,9.48-13.04,9.48s-11.21-3.83-13.04-9.48h0Z"/>
      <path class="cls-4" d="M164.57,27.39h0c0-1.94.77-3.8,2.14-5.17,1.37-1.37,3.23-2.14,5.17-2.14h16.09c9.55,0,17.31,7.75,17.31,17.31s-7.76,17.31-17.31,17.31h-8.77v8.39c0,1.94-.77,3.8-2.14,5.17-1.37,1.37-3.23,2.14-5.17,2.14h0c-1.94,0-3.8-.77-5.17-2.14-1.37-1.37-2.14-3.23-2.14-5.17v-10.82c0-6.28,2.85-11.89,7.32-15.63v-1.92c-4.04,0-7.32-3.28-7.32-7.32h0ZM187.97,42.86c3.03,0,5.48-2.46,5.48-5.48s-2.46-5.48-5.48-5.48h-7.25c-.84,0-1.52.68-1.52,1.52v7.93c0,.84.68,1.52,1.52,1.52h7.25Z"/>
      <path class="cls-9" d="M45,0c11.94,0,23.38,4.74,31.82,13.18,8.44,8.44,13.18,19.89,13.18,31.82h0c0,11.93-4.74,23.38-13.18,31.82-8.44,8.44-19.88,13.18-31.82,13.18h0c-11.93,0-23.38-4.74-31.82-13.18C4.74,68.38,0,56.93,0,45h0c0-11.93,4.74-23.38,13.18-31.82C21.62,4.74,33.07,0,45,0h0Z"/>
      <path class="cls-7" d="M23.96,84.78c-3.94-2.08-7.58-4.75-10.78-7.96-1.92-1.92-3.64-3.99-5.17-6.19.04-.05.08-.1.12-.15,2.37-2.96,5.24-5.09,8.28-6.57.35-.17.64-.44.83-.78.08-.15.21-.27.37-.34,2.1-.93,4.32-1.44,6.59-1.64.42-.04.87.01,1.33.14.81-.1,1.62-.16,2.41-.19-.2-.45-.61-.92-1.37-1.6-7.2-6.47-9.75-12.73-10.05-18.92l-.06-.05c-.72-.53-1.27-1.38-1.64-2.34-.51-1.31-.71-2.83-.71-3.85,0-9.47,5.14-17.08,12.79-21.36.19-1.04,1.12-2.1,2.49-2.65,1.35-.55,2.75-.46,3.61.14,2.13-.57,4.37-.88,6.68-.88,5.9,0,11.34,2,15.67,5.36,3.78-1.19,7.49-1.77,10.74-1.35,2.71.35,4.72,1.18,6.09,2.31h0c2.11,1.74,2.8,4.17,2.22,6.82-.77,3.55-3.92,7.57-9.05,10.65.47,2.74.53,5.4.24,7.93.96-.1,1.97-.22,3.07-.36,2.48-.31,4.62,1.9,4.59,4.26-.03,2.31-2.12,4.24-4.34,4.45-.41.04-1.12.11-2.2.16.51.63.82,1.45.82,2.42,0,2.45-1.86,4.08-4.23,4.16-1.45.05-3.18.04-4.93.01-1.9,1.91-4.11,3.52-6.55,4.74.74.06,1.54.18,2.24.32.7.14,1.54.39,2.42.78,7.96,2.08,14.59,8.31,17.86,16.85-.43.37-.87.74-1.32,1.09-1.98,1.58-4.09,2.98-6.29,4.19-.51.28-1.03.56-1.55.82-6.21,3.11-13.11,4.78-20.19,4.78s-14.61-1.82-21.04-5.22h0Z"/>
      <path class="cls-2" d="M22.42,83.93c.37-4.33.31-6.93.31-6.93,0-.23.09-.46.26-.61.17-.16.4-.23.63-.21,0,0,.95.1,2.54.25-.22-4.13-.99-7.25-2.19-9.35-1-1.76-2.32-2.76-3.86-2.95-3.94,1.32-7.76,3.65-10.74,7.36-.13.16-.26.33-.39.5,1.27,1.7,2.67,3.31,4.18,4.82,2.78,2.78,5.9,5.16,9.24,7.11h0Z"/>
      <path class="cls-8" d="M18.12,39.82c.14,6.05,2.49,12.15,9.53,18.48,1.09.98,1.59,1.68,1.84,2.33.25.66.25,1.28.25,2.16,0,1.22.79,2.52,2.29,3.69,2.52,1.96,6.95,3.45,13.33,3.45,2.84,0,4.99-.72,6.28-1.82.75-.64,1.19-1.4,1.24-2.2.08-1.37-.93-2.75-3.06-3.83-.62.25-1.26.48-1.91.68-.42.13-.88-.11-1.01-.53-.13-.42.11-.88.53-1.01,3.24-1,6.17-2.66,8.64-4.84-1.73-.05-3.33-.12-4.51-.2-3.88-.23-7.28-3.25-7.2-7.82.08-4.35,3.69-7.3,7.56-7.03,5.64.39,8.82.4,12.02.15.32-2.46.28-5.06-.17-7.75l-.15-.35c-2.49-5.66-7.49-7.33-12.9-7.22-1.64,1.33-3.06,2.52-4.1,3.34-5.24,4.15-11.93,2.84-14.75,1.53-5.15,1.95-10.11,5.2-13.75,8.81h0Z"/>
      <path class="cls-2" d="M54.48,65.33c.14,1.25-.31,2.48-1.29,3.53-1.44,1.53-4.13,2.68-7.83,2.68-6.16,0-10.61-1.35-13.42-3.15.91,2.34,1.55,5.26,1.79,8.63,3.69.23,7.9.39,11.74.33,4.54-.08,8.52-.32,11.79-.67-.18-4.17-.75-7.49-1.93-9.9-.27-.55-.55-1.02-.85-1.44h0Z"/>
      <path class="cls-2" d="M53.49,15.59c-3.9-2.76-8.67-4.38-13.81-4.38-3.17,0-6.2.62-8.98,1.74-8.77,3.55-14.98,11.35-14.98,21.39,0,.86.17,2.15.6,3.26.16.41.36.81.61,1.13,3.83-3.82,9.09-7.26,14.53-9.29,3.58-3.75,11.09-9.19,19-12.64,1.01-.44,2.02-.85,3.03-1.22h0Z"/>
      <path class="cls-2" d="M65.4,15.15c-4.29-.41-9.37.97-14.3,3.13-7.21,3.15-14.1,7.99-17.79,11.59,2.8,1.03,8.08,1.71,12.32-1.64,1.08-.86,2.57-2.11,4.29-3.51,1.09-.88,2.27-1.81,3.5-2.75,3.79-2.85,8.09-5.67,11.81-6.77.05-.02.11-.03.17-.05h0Z"/>
      <path class="cls-3" d="M71.16,17.17c-1.41-1.11-3.34-1.06-5.47-.42-3.56,1.06-7.67,3.78-11.3,6.51-.58.44-1.15.88-1.7,1.31,5,.31,9.46,2.3,12.02,7.33,4.56-2.79,7.43-6.32,8.12-9.51.44-2.03-.06-3.9-1.66-5.23h0Z"/>
      <path class="cls-2" d="M73.03,80.21c-1.98,1.58-4.09,2.98-6.29,4.19-.23-3.1-.61-6.01-1.18-8.4-.05-.21-.19-.4-.38-.51-.19-.11-.42-.14-.63-.08-.21.06-.43.12-.66.18-.37-3.08-1.28-6.92-3.31-9.93-.04-.06-.08-.11-.12-.17,5.63,2.84,10.16,8.07,12.57,14.72h0Z"/>
      <path class="cls-6" d="M65.19,85.22c-6.21,3.11-13.11,4.78-20.19,4.78s-14.61-1.82-21.04-5.22c.31-3.27.37-5.68.39-6.91.47.05,1.1.11,1.88.18.01.83,0,1.7-.02,2.61-.04,1.3.52,2.35,1.23,3.14.99,1.1,2.26,1.65,2.26,1.65.22.1.46.09.68-.01,0,0,1.13-.55,2.08-1.59.67-.73,1.25-1.7,1.36-2.87,0-.02,0-.04,0-.06.02-.78.01-1.55-.01-2.29,3.68.22,7.86.39,11.68.32,4.53-.08,8.52-.32,11.82-.67.01.52.01,1.05.01,1.59,0,1.05.55,1.9,1.24,2.53.91.83,2.06,1.25,2.06,1.25.2.07.43.06.62-.03,0,0,2.89-1.41,2.89-4.29,0-.58-.02-1.3-.08-2.12.04-.01.08-.02.13-.03.49,2.35.82,5.12,1.01,8.04h0Z"/>
      <path class="cls-4" d="M63.34,49.93c-2.73.03-6.52-.05-11.65-.38-.44-.03-.78-.41-.75-.86.03-.44.41-.78.86-.75,10.84.7,15.63.25,16.98.12,1.45-.14,2.86-1.35,2.88-2.86.02-1.45-1.26-2.83-2.78-2.64-5.61.7-8.64.95-17.06.37-2.99-.21-5.78,2.09-5.84,5.46-.06,3.61,2.62,6,5.69,6.18,2.82.17,8.08.35,11.6.24,1.47-.05,2.68-1.02,2.67-2.54,0-1.49-1.25-2.32-2.59-2.32h0Z"/>
      <path class="cls-6" d="M54.94,63.34c.65.69,1.27,1.58,1.84,2.72,1.55,3.17,2.16,7.81,2.16,13.81,0,.56.34,1,.71,1.34.41.38.89.64,1.2.79.55-.34,1.67-1.21,1.67-2.66,0-2.71-.46-8.6-3.27-12.77-1.19-1.75-2.9-2.77-4.3-3.22h0Z"/>
      <path class="cls-7" d="M60.78,78.73c.48,0,.87.44.87.98s-.39.98-.87.98-.87-.44-.87-.98.39-.98.87-.98h0Z"/>
      <path class="cls-6" d="M22.18,63.05c1.23.6,2.31,1.67,3.2,3.23,1.68,2.95,2.63,7.75,2.44,14.43-.03.84.36,1.5.82,2.01.47.52,1.02.88,1.37,1.08.32-.2.82-.55,1.27-1.04.45-.49.86-1.12.94-1.9.13-6.56-1.18-11.74-3.24-14.77-.79-1.16-1.83-2.21-2.89-2.82-.6-.35-1.2-.57-1.74-.52-.73.06-1.45.16-2.17.3h0Z"/>
      <path class="cls-7" d="M30.07,80.05c.61,0,1.1.49,1.1,1.1s-.49,1.1-1.1,1.1-1.1-.49-1.1-1.1.49-1.1,1.1-1.1h0Z"/>
      <path class="cls-7" d="M35.89,82.76c-.36-.03-.63-.34-.6-.7.03-.36.34-.63.7-.6,0,0,11.15.86,19.47-.64.35-.06.69.17.76.53.06.35-.17.69-.52.76-8.46,1.53-19.8.65-19.8.65h0Z"/>
      <path class="cls-7" d="M17.71,33.77c.62,0,1.12.55,1.12,1.23s-.5,1.23-1.12,1.23-1.12-.55-1.12-1.23.5-1.23,1.12-1.23h0Z"/>
      <path class="cls-7" d="M29.18,26.49c.1.35-.11.71-.45.8-.35.1-.71-.11-.8-.45,0,0-1.34-4.82-.39-9.76.07-.35.41-.59.76-.52.35.07.59.41.52.76-.89,4.64.37,9.17.37,9.17h0Z"/>
      <path class="cls-7" d="M44.75,42.83c-2.14.25-3.19-1.97-3.53-4.83-.34-2.85.21-5.27,2.31-5.52,2.1-.25,3.19,1.97,3.53,4.83.34,2.85-.17,5.26-2.31,5.52h0Z"/>
      <path class="cls-7" d="M58.36,40.67c-1.65,0-2.24-1.78-2.24-3.97s.63-3.98,2.24-3.98,2.24,1.78,2.24,3.98-.6,3.97-2.24,3.97h0Z"/>
      <path class="cls-1" d="M57.6,33.62c.42,0,.76.34.76.76s-.34.76-.76.76-.76-.34-.76-.76.34-.76.76-.76h0Z"/>
      <path class="cls-1" d="M42.68,33.77c.54-.06,1.04.33,1.1.87.06.54-.32,1.04-.87,1.1-.55.06-1.04-.33-1.1-.87-.06-.55.32-1.04.87-1.1h0Z"/>
      <path class="cls-5" d="M99.55,79.74c-.27,0-.49-.22-.49-.49v-.03c.01-.26.23-.47.49-.47.27,0,.49.22.49.49s-.22.49-.49.49h0ZM103.49,83.02c-1.32,0-2.11.79-3.35.79-.42,0-.73-.19-.73-.53s.3-.54.7-.7l3.47-1.27c1.34-.48,1.88-1.08,1.88-2.06,0-1.37-1.65-2.47-3.62-2.47s-3.62,1.1-3.62,2.47c0,.73.59,1.15,1.32,1.15s1.32-.42,1.32-1.15c0-.6-.41-1-.96-1.12.54-.32,1.26-.52,1.95-.52,1.32,0,2.63.77,2.63,1.64,0,.69-.41.96-1.23,1.26l-3.33,1.21c-1.07.4-1.48.86-1.48,1.56,0,.89.63,1.41,1.71,1.41,1.22,0,2.03-.77,3.35-.77.6,0,.82.38.82.81v1.25c0,.27.22.49.49.49h0c.27,0,.49-.22.49-.49v-1.25c0-1.06-.78-1.71-1.81-1.71h0Z"/>
      <path class="cls-5" d="M108.16,83.33c-.27,0-.49-.22-.49-.49s.22-.49.49-.49.49.22.49.49-.22.49-.49.49h0ZM110.23,80.59c-1.23,0-2.47-.49-2.47-1.48s1.23-1.48,2.47-1.48,2.47.49,2.47,1.48-1.23,1.48-2.47,1.48h0ZM113.68,79.1c0-1.47-1.56-2.29-3.46-2.29s-3.45.82-3.45,2.3,1.56,2.29,3.45,2.29c1.01,0,1.88-.2,2.47-.63v1.48c0,1.3-1.23,1.63-2.47,1.63-.41,0-.84-.01-1.25-.11.3-.2.49-.52.49-.93,0-.73-.59-1.15-1.32-1.15s-1.32.42-1.32,1.15c0,1.19,1.5,1.87,3.39,1.87s3.46-.66,3.46-2.46v-3.15h0Z"/>
      <path class="cls-5" d="M116.16,84.03c-.27,0-.49-.22-.49-.49s.22-.49.49-.49.49.22.49.49-.22.49-.49.49h0ZM120.26,76.81c-1.44,0-2.54.71-3.02,1.08-.31-.55-.9-.92-1.58-.92h-.1c-.13,0-.25.05-.34.14-.09.09-.14.21-.14.34h0c0,.13.05.25.14.34.09.09.21.14.34.14h.1c.49,0,.82.33.82.99v3.5c-.11-.01-.22-.03-.33-.03-.73,0-1.32.43-1.32,1.15s.59,1.15,1.32,1.15,1.32-.42,1.32-1.15v-4.65c.41-.52,1.45-1.26,2.7-1.26.82,0,1.73.3,1.73,1.39v5.18c0,.27.22.49.49.49h0c.27,0,.49-.22.49-.49v-5.42c0-1.32-1.32-1.97-2.63-1.97h0Z"/>
      <path class="cls-5" d="M140.26,84.03c-.27,0-.49-.22-.49-.49s.22-.49.49-.49.49.22.49.49-.22.49-.49.49h0ZM144.36,76.81c-1.44,0-2.54.71-3.02,1.08-.31-.55-.9-.92-1.58-.92h-.1c-.13,0-.25.05-.34.14-.09.09-.14.21-.14.34h0c0,.13.05.25.14.34.09.09.21.14.34.14h.1c.49,0,.82.33.82.99v3.5c-.11-.01-.22-.03-.33-.03-.73,0-1.32.43-1.32,1.15s.59,1.15,1.32,1.15,1.32-.42,1.32-1.15v-4.65c.41-.52,1.45-1.26,2.7-1.26.82,0,1.73.3,1.73,1.39v5.18c0,.27.22.49.49.49h0c.27,0,.49-.22.49-.49v-5.42c0-1.32-1.32-1.97-2.63-1.97h0Z"/>
      <path class="cls-5" d="M179.26,84.03c-.27,0-.49-.22-.49-.49s.22-.49.49-.49.49.22.49.49-.22.49-.49.49h0ZM183.36,76.81c-1.44,0-2.54.71-3.02,1.08-.31-.55-.9-.92-1.58-.92h-.1c-.13,0-.25.05-.34.14-.09.09-.14.21-.14.34h0c0,.13.05.25.14.34.09.09.21.14.34.14h.1c.49,0,.82.33.82.99v3.5c-.11-.01-.22-.03-.33-.03-.73,0-1.32.43-1.32,1.15s.59,1.15,1.32,1.15,1.32-.42,1.32-1.15v-4.65c.41-.52,1.45-1.26,2.7-1.26.82,0,1.73.3,1.73,1.39v5.18c0,.27.22.49.49.49h0c.27,0,.49-.22.49-.49v-5.42c0-1.32-1.32-1.97-2.63-1.97h0Z"/>
      <path class="cls-5" d="M125.67,81.51c.27,0,.49.23.49.49s-.22.49-.49.49-.49-.22-.49-.49.22-.49.49-.49h0ZM127.8,76.78c-2.01,0-3.45.82-3.45,2.3v.19c0,.27.22.49.49.49h0c.27,0,.49-.22.49-.49v-.19c0-.99,1.06-1.48,2.47-1.48,1.23,0,2.47.33,2.47,1.64v2.95c0,1.32-1.24,1.65-2.47,1.65-1.08,0-1.8-.21-2.22-.69h.08c.73,0,1.32-.43,1.32-1.15s-.59-1.14-1.32-1.14-1.32.49-1.32,1.29v.16c0,1.48,1.45,2.33,3.45,2.33,1.89,0,3.44-.66,3.44-2.45v-2.95c0-1.81-1.55-2.47-3.44-2.47h0Z"/>
      <path class="cls-5" d="M198.09,81.51c.27,0,.49.23.49.49s-.22.49-.49.49-.49-.22-.49-.49.22-.49.49-.49h0ZM200.23,76.78c-2.02,0-3.46.82-3.46,2.3v.19c0,.27.22.49.49.49h0c.27,0,.49-.22.49-.49v-.19c0-.99,1.06-1.48,2.47-1.48,1.23,0,2.47.33,2.47,1.64v2.95c0,1.32-1.23,1.65-2.47,1.65-1.08,0-1.8-.21-2.22-.69h.08c.73,0,1.32-.43,1.32-1.15s-.59-1.14-1.32-1.14-1.32.49-1.32,1.29v.16c0,1.48,1.45,2.33,3.46,2.33,1.89,0,3.44-.66,3.44-2.45v-2.95c0-1.81-1.55-2.47-3.44-2.47h0Z"/>
      <path class="cls-5" d="M132.82,84.83c.27,0,.49.22.49.49s-.22.49-.49.49-.49-.22-.49-.49.22-.49.49-.49h0ZM134.15,78.84c-.4-.16-.71-.32-.71-.65s.32-.49.66-.49h2.43c.25,0,.45-.2.45-.45h0c0-.25-.2-.45-.45-.45h-2.43c-.9,0-1.65.51-1.65,1.38,0,.7.42,1.12,1.48,1.54l1.82.7c.82.32,1.22.58,1.22,1.26v3.59c0,.88-.84,1.69-2.15,1.69-.75,0-1.43-.16-1.78-.51.62-.08,1.1-.48,1.1-1.14,0-.73-.59-1.15-1.32-1.15s-1.32.49-1.32,1.32c0,1.37,1.34,2.3,3.32,2.3s3.14-1.14,3.14-2.51v-3.59c0-.97-.54-1.58-1.87-2.1l-1.95-.75h0Z"/>
      <path class="cls-5" d="M149.85,79.08c0,.27-.22.49-.49.49s-.49-.22-.49-.49.22-.49.49-.49.49.22.49.49h0ZM150.98,76.78c-1.97,0-2.93.99-2.93,2.14,0,.82.59,1.32,1.32,1.32s1.32-.42,1.32-1.15-.56-1.12-1.26-1.15c.33-.22.95-.33,1.56-.33,1.14,0,1.93.82,1.93,1.64v5.25c0,.97-.63,1.55-1.93,1.55-.5,0-1.09-.1-1.7-.51-.2-.13-.46-.1-.62.09h0c-.09.1-.13.24-.11.38.02.14.1.26.21.33.66.43,1.53.63,2.22.63,1.96,0,2.92-1.1,2.92-2.47v-5.25c0-1.32-1.12-2.47-2.92-2.47h0Z"/>
      <path class="cls-5" d="M150.57,75.22c0,.13.05.25.14.34.09.09.21.14.34.14h0c.13,0,.25-.05.34-.14.09-.09.14-.21.14-.34v-1.51c0-.13-.05-.25-.14-.34-.09-.09-.21-.14-.34-.14h0c-.13,0-.25.05-.34.14-.09.09-.14.21-.14.34v1.51h0Z"/>
      <path class="cls-5" d="M156.23,78.62c-.27,0-.49-.22-.49-.49s.22-.49.49-.49.49.22.49.49-.22.49-.49.49h0ZM156.89,76.81c-1.15,0-1.97.49-1.97,1.32,0,.66.59,1.15,1.32,1.15s1.32-.49,1.32-1.15c0-.16-.03-.32-.1-.45.56.14.75.59.75,1.27v5.06c0,.27.22.49.49.49h0c.27,0,.49-.22.49-.49v-5.06c0-1.32-.82-2.14-2.3-2.14h0Z"/>
      <path class="cls-5" d="M162.03,78.45c-.27,0-.49-.22-.49-.49s.22-.49.49-.49.49.22.49.49-.22.49-.49.49h0ZM167.44,76.81c-.27,0-.49.22-.49.49v4.92c0,1.32-1.39,1.65-2.62,1.65s-2.63-.33-2.63-1.65c0-.82.73-1.29,1.4-1.29h1.23v-.84h-1.22c-.64-.01-1.4-.18-1.4-1.01.11.01.21.03.32.03.73,0,1.32-.43,1.32-1.15s-.59-1.15-1.32-1.15-1.32.49-1.32,1.32v.49c0,.88.33,1.63,1.04,1.93-.53.29-1.04.88-1.04,1.67,0,1.81,1.73,2.47,3.62,2.47s3.61-.66,3.61-2.47v-4.92c0-.27-.22-.49-.49-.49h0Z"/>
      <path class="cls-5" d="M170.79,81.09c.26,0,.49.22.49.49,0,.26-.23.48-.49.48-.27,0-.49-.22-.49-.48,0-.27.22-.49.49-.49h0ZM174.64,76.81c-.59,0-1.16.23-1.56.64-.38-.41-.96-.64-1.55-.64-1.03,0-2.06.47-2.06,1.97v2.8c0,.71.59,1.14,1.32,1.14s1.3-.43,1.3-1.14-.58-1.15-1.3-1.15c-.12,0-.23,0-.33.03v-1.84c0-.66.47-.99,1.07-.99s1.06.33,1.06.99v.33c0,.27.22.49.49.49h0c.27,0,.49-.22.49-.49v-.33c0-.66.45-.99,1.07-.99s1.07.33,1.07.99v5.88c0,1.32-1.24,1.59-2.47,1.59-.67,0-1.21-.08-1.75-.36-.18-.09-.4-.06-.53.09h0c-.1.11-.15.26-.12.41.03.15.12.27.26.34.6.28,1.35.4,2.15.4,1.89,0,3.46-.66,3.46-2.47v-5.72c0-1.51-1.03-1.97-2.06-1.97h0Z"/>
      <path class="cls-5" d="M181.31,73.91c.27,0,.49.22.49.49s-.22.49-.49.49-.49-.22-.49-.49.22-.49.49-.49h0ZM185.73,73.81c-.17-.18-.45-.2-.64-.04-.74.63-1.76,1.25-2.74,1.28.16-.16.27-.37.27-.64,0-.73-.59-1.15-1.32-1.15s-1.32.42-1.32,1.15c0,.92.99,1.47,2.3,1.47,1.42,0,2.55-.68,3.39-1.37.1-.08.16-.2.17-.33,0-.13-.04-.26-.12-.35,0,0,0,0,0,0h0Z"/>
      <path class="cls-5" d="M187.94,77.96c0-.27.22-.49.49-.49.26,0,.49.22.49.49s-.23.49-.49.49c-.27,0-.49-.22-.49-.49h0ZM194.35,82.06c0,1.32-1.15,1.81-2.39,1.81s-2.22-.49-2.22-1.81v-4.1c0-.73-.57-1.15-1.3-1.15s-1.32.42-1.32,1.15.59,1.15,1.32,1.15c.11,0,.22-.01.33-.03v2.97c0,1.81,1.3,2.63,3.2,2.63s3.37-.82,3.37-2.63v-4.76c0-.13-.05-.26-.15-.35-.09-.09-.22-.14-.35-.14h0c-.13,0-.26.05-.35.14-.09.09-.15.22-.15.35v4.76h0Z"/>
      <path class="cls-5" d="M202.7,75.4c.04-.14.07-.29.07-.45,0-1.37-1.01-2.14-2.91-2.14s-2.91.77-2.91,2.14c0,.36.11.65.27.89.13.2.4.27.61.15,0,0,0,0,0,0,.2-.11.28-.34.2-.55-.07-.16-.1-.32-.1-.48,0-.88.69-1.32,1.92-1.32s1.92.44,1.92,1.32c0,.11-.02.23-.05.36-.08.3.05.61.32.76,0,0,.02.01.02.01.1.06.21.08.32.08h1.06c.23,0,.41-.18.41-.41h0c0-.23-.19-.41-.41-.41h-.42l-.33.05h0Z"/>
      <path class="cls-5" d="M207.43,83.54c0,.27-.22.49-.49.49s-.49-.22-.49-.49.22-.49.49-.49.49.22.49.49h0ZM205.73,73.43c.16,0,.3.04.45.1,0,0,1.37.49,2.02.72.14.05.3.03.42-.06.12-.09.2-.23.2-.38h0c0-.18-.11-.34-.28-.4-.51-.18-2-.72-2-.72-.14-.04-.49-.14-.85-.14-.93,0-1.6.67-1.6,1.51,0,.7.34,1.27,1.41,1.66l1.21.44c-.78.32-1.1.97-1.1,1.92v5.46c0,.73.59,1.15,1.32,1.15s1.32-.42,1.32-1.15-.59-1.15-1.32-1.15c-.11,0-.22.01-.33.03v-4.33c0-.88.33-1.39,1.48-1.39h.09c.25,0,.46-.2.46-.46h0c0-.2-.12-.37-.3-.44-.75-.27-2.62-.96-2.62-.96-.4-.18-.67-.4-.67-.77s.27-.63.69-.63h0Z"/>
      <path class="cls-5" d="M209.75,77.96c0-.27.22-.49.49-.49s.49.22.49.49-.22.49-.49.49-.49-.22-.49-.49h0ZM216.16,82.06c0,1.32-1.15,1.81-2.39,1.81s-2.22-.49-2.22-1.81v-4.1c0-.73-.59-1.15-1.32-1.15s-1.32.42-1.32,1.15.59,1.15,1.32,1.15c.12,0,.23-.01.33-.04v2.99c0,1.81,1.32,2.63,3.21,2.63s3.37-.82,3.37-2.63v-6.57c0-.27-.22-.49-.49-.49h0c-.27,0-.49.22-.49.49v6.57h0Z"/>
      <path class="cls-5" d="M219.14,77.96c0-.27.22-.49.49-.49s.49.22.49.49-.22.49-.49.49-.49-.22-.49-.49h0ZM226.86,82.91c0,.66-.62.96-1.24.96s-1.22-.47-1.22-.96v-2.97c0-.27-.22-.49-.49-.49h0c-.27,0-.49.22-.49.49v2.97c0,.49-.62.96-1.22.96s-1.25-.3-1.25-.96v-4.95c0-.73-.59-1.15-1.32-1.15s-1.32.42-1.32,1.15.59,1.15,1.32,1.15c.12,0,.23-.01.33-.04v3.84c0,1.32,1.21,1.78,2.1,1.78.74,0,1.41-.34,1.85-.73.44.38,1.1.73,1.85.73.89,0,2.08-.47,2.08-1.78v-5.61c0-.27-.22-.49-.49-.49h0c-.27,0-.49.22-.49.49v5.61h0Z"/>
      <path class="cls-5" d="M231.12,83.54c0,.27-.22.49-.49.49s-.49-.22-.49-.49.22-.49.49-.49.49.22.49.49h0ZM232.75,76.81c-1.99,0-3.44.82-3.44,2.3v.2c0,.27.22.49.49.49h0c.27,0,.49-.22.49-.49v-.2c0-.99,1.03-1.48,2.45-1.48,1.23,0,2.47.33,2.47,1.65v2.62c-.7-.7-1.73-1.18-2.88-1.18-2.17,0-3.03,1.4-3.03,2.5v.16c0,.82.59,1.32,1.32,1.32s1.32-.42,1.32-1.15-.59-1.15-1.32-1.15c-.1,0-.18.01-.26.01.3-.49.93-.86,1.97-.86,1.45,0,2.51.95,2.88,1.88v.78c0,.27.22.49.49.49h0c.27,0,.49-.22.49-.49v-4.92c0-1.81-1.56-2.47-3.46-2.47h0Z"/>
      <path class="cls-5" d="M231.52,73.91c.27,0,.49.22.49.49s-.22.49-.49.49-.49-.22-.49-.49.22-.49.49-.49h0ZM235.95,73.82c-.17-.19-.46-.2-.65-.04-.74.63-1.76,1.25-2.74,1.27.16-.16.27-.37.27-.64,0-.73-.59-1.15-1.32-1.15s-1.32.42-1.32,1.15c0,.92.99,1.47,2.3,1.47,1.42,0,2.55-.68,3.39-1.37.1-.08.16-.2.17-.33,0-.13-.04-.26-.12-.35h0Z"/>
      <path class="cls-5" d="M239.47,83.54c0,.27-.22.49-.49.49s-.49-.22-.49-.49.22-.49.49-.49.49.22.49.49h0ZM240.62,79.77c-1.1,0-1.97-.33-1.97-.99s.99-1.15,2.3-1.15c.89,0,2.03.16,2.61.75-.6.69-1.54,1.39-2.94,1.39h0ZM244.69,76.97c-.17,0-.32.1-.38.25-.05.11-.13.26-.22.42-.77-.59-1.97-.84-3.13-.84-1.89,0-3.29.66-3.29,1.97,0,1.15.99,1.8,2.96,1.8,1.48,0,2.55-.59,3.29-1.3v3.73c-.82-.95-1.81-1.6-3.51-1.6s-2.74.82-2.74,1.97c0,.82.59,1.32,1.32,1.32s1.32-.42,1.32-1.15c0-.62-.44-1.03-1.01-1.12.34-.14.75-.19,1.12-.19,1.58,0,2.55.69,3.34,1.98.11.18.31.3.53.3,0,0,0,0,.01,0,.16,0,.32-.07.44-.18.12-.11.18-.27.18-.44v-4.61c0-.36-.08-.66-.22-.92.18-.26.32-.52.43-.73.07-.14.06-.31-.02-.44-.08-.13-.23-.21-.38-.21,0,0-.01,0-.02,0h0Z"/>
      <path class="cls-4" d="M248.3,5.28c0-1.7,1.38-3.09,3.09-3.09s3.09,1.38,3.09,3.09v6.01c0,1.19.96,2.15,2.15,2.15h6.01c1.7,0,3.09,1.38,3.09,3.09s-1.38,3.09-3.09,3.09h-6.01c-4.59,0-8.32-3.72-8.32-8.32v-6.01h0Z"/>
      <path class="cls-4" d="M240.14,19.61c-1.7,0-3.09-1.38-3.09-3.09s1.38-3.09,3.09-3.09h5.39c1.7,0,3.09,1.38,3.09,3.09s-1.38,3.09-3.09,3.09h-5.39Z"/>
      <path class="cls-4" d="M248.3,22.38c0-1.7,1.38-3.09,3.09-3.09s3.09,1.38,3.09,3.09v5.39c0,1.7-1.38,3.09-3.09,3.09s-3.09-1.38-3.09-3.09v-5.39h0Z"/>
    </g>
  </g>
</svg>